<svg xmlns="http://www.w3.org/2000/svg" viewBox="0 0 64 64" width="512" height="512" role="img" aria-label="Polar Bear Lights logo: a polar bear framed by a single ring of Christmas lights">
  <!-- single light-string ring -->
  <circle cx="32" cy="32" r="26" fill="none" stroke="#2e6b52" stroke-width="2"/>
  <!-- hanging bulbs -->
  <circle cx="58" cy="32" r="3" fill="#f7c948"/>
  <circle cx="54.5" cy="45" r="3" fill="#c6415f"/>
  <circle cx="45" cy="54.5" r="3" fill="#2e6b52"/>
  <circle cx="32" cy="58" r="3" fill="#7fb5d9"/>
  <circle cx="19" cy="54.5" r="3" fill="#f7c948"/>
  <circle cx="9.5" cy="45" r="3" fill="#c6415f"/>
  <circle cx="6" cy="32" r="3" fill="#2e6b52"/>
  <circle cx="9.5" cy="19" r="3" fill="#7fb5d9"/>
  <circle cx="19" cy="9.5" r="3" fill="#f7c948"/>
  <circle cx="32" cy="6" r="3" fill="#c6415f"/>
  <circle cx="45" cy="9.5" r="3" fill="#2e6b52"/>
  <circle cx="54.5" cy="19" r="3" fill="#7fb5d9"/>
  <!-- polar bear -->
  <circle cx="21" cy="24" r="6.5" fill="#fdfdff" stroke="#c6d3db" stroke-width="1.2"/>
  <circle cx="43" cy="24" r="6.5" fill="#fdfdff" stroke="#c6d3db" stroke-width="1.2"/>
  <circle cx="21" cy="24.5" r="3.4" fill="#dce7ea"/>
  <circle cx="43" cy="24.5" r="3.4" fill="#dce7ea"/>
  <circle cx="32" cy="35" r="14" fill="#fdfdff" stroke="#c6d3db" stroke-width="1.2"/>
  <circle cx="32" cy="40" r="7.5" fill="#dce7ea"/>
  <circle cx="26" cy="30" r="2.3" fill="#0d1b3e"/>
  <circle cx="38" cy="30" r="2.3" fill="#0d1b3e"/>
  <path d="M28.5 37 Q32 36.3 35.5 37 Q33.7 40.3 32 41.6 Q30.3 40.3 28.5 37 Z" fill="#0d1b3e"/>
  <path d="M32 41.6 V43" stroke="#0d1b3e" stroke-width="1.1" fill="none" stroke-linecap="round"/>
  <path d="M29 43.3 Q32 45.4 35 43.3" stroke="#0d1b3e" stroke-width="1.2" fill="none" stroke-linecap="round"/>
</svg>
